<svg width="48" height="48" xmlns="http://www.w3.org/2000/svg">

 <title/>
 <g>
  <title>background</title>
  <rect fill="none" id="canvas_background" height="48" width="48" y="-1" x="-1"/>
 </g>
 <g>
  <title>Layer 1</title>
  <path id="svg_1" d="m1,24c0,-12.707182 10.292818,-23 23,-23c12.707182,0 23,10.292818 23,23c0,12.707182 -10.292818,23 -23,23c-12.707182,0 -23,-10.292818 -23,-23z" stroke-opacity="null" stroke-linecap="null" stroke-linejoin="null" stroke-width="2px" stroke="#231f20" fill-opacity="null" fill="none"/>
  <path stroke-linecap="round" stroke-width="2px" stroke-miterlimit="10" stroke="#231f20" fill="none" id="svg_2" d="m14,33s8.83,9.33 20,0" class="cls-2"/>
  <path id="svg_3" d="m14,19c0,-2.209945 1.342541,-4 3,-4c1.657459,0 3,1.790055 3,4c0,2.209945 -1.342541,4 -3,4c-1.657459,0 -3,-1.790055 -3,-4z" stroke-opacity="null" stroke-linecap="null" stroke-linejoin="null" stroke-width="null" stroke="null" fill-opacity="null" fill="#231f20"/>
  <path id="svg_4" d="m28,19c0,-2.209945 1.342541,-4 3,-4c1.657459,0 3,1.790055 3,4c0,2.209945 -1.342541,4 -3,4c-1.657459,0 -3,-1.790055 -3,-4z" stroke-opacity="null" stroke-linecap="null" stroke-linejoin="null" stroke-width="null" stroke="null" fill-opacity="null" fill="#231f20"/>
 </g>
</svg>
