<?xml version="1.0" encoding="UTF-8" standalone="no"?><!-- Generator: Gravit.io --><svg xmlns="http://www.w3.org/2000/svg" xmlns:xlink="http://www.w3.org/1999/xlink" style="isolation:isolate" viewBox="0 0 48 48" width="48pt" height="48pt"><g><circle vector-effect="non-scaling-stroke" cx="24.00000000000001" cy="24.000000000000007" r="24.000000000000007" fill="rgb(255,255,255)"/><circle vector-effect="non-scaling-stroke" cx="24.496986605798067" cy="14.5" r="5.5" fill="rgb(74,144,226)"/><path d=" M 7.864 36.298 C 7.556 36.166 7.403 35.968 7.304 35.756 C 7.205 35.544 7.161 35.317 7.071 35.128 C 6.903 34.586 7.072 34.288 7.072 34.2 C 7.631 28.532 14.905 23.996 24.544 24.003 C 34.184 24.01 41.952 28.59 41.948 34.225 C 41.948 34.427 42.059 34.831 41.947 35.153 C 41.829 35.494 41.475 36.013 40.887 36.322 Q 40.005 36.785 38.419 37.007 L 34.891 37.004 L 24.535 36.997 L 15.802 36.991 L 14.215 36.99 Q 9.72 37.093 7.864 36.298 Z " fill="rgb(74,144,226)"/></g></svg>